PathFileType	4	(X/Y/Z)	Patient4_TMGait_0pt3_02_right_23.trc.trc
DataRate	CameraRate	NumFrames	NumMarkers	Units	OrigDataRate	OrigDataStartFrame	OrigNumFrames
50.541516245487	50.541516245487	6	33	mm	50.541516245487	1	       141
Frame#	Time	Sacral			L.Shoulder			Chest			R.Shoulder			Neck			R.ASIS			L.ASIS			R.Thigh.Superior			R.Thigh.Lateral			R.Thigh.Inferior			R.Patella			L.Thigh.Superior			L.Thigh.Lateral			L.Thigh.Inferior			L.Patella			L.Shank.Superior			L.Shank.Lateral			L.Shank.Inferior			R.Shank.Superior			R.Shank.Lateral			R.Shank.Inferior			R.Heel			R.Midfoot.Superior			R.Midfoot.Lateral			R.Toe			L.Heel			L.Midfoot.Lateral			L.Midfoot.Superior			L.Toe			L.Elbow			L.Wrist			R.Elbow			R.Wrist			
		X1	Y1	Z1	X2	Y2	Z2	X3	Y3	Z3	X4	Y4	Z4	X5	Y5	Z5	X6	Y6	Z6	X7	Y7	Z7	X8	Y8	Z8	X9	Y9	Z9	X10	Y10	Z10	X11	Y11	Z11	X12	Y12	Z12	X13	Y13	Z13	X14	Y14	Z14	X15	Y15	Z15	X16	Y16	Z16	X17	Y17	Z17	X18	Y18	Z18	X19	Y19	Z19	X20	Y20	Z20	X21	Y21	Z21	X22	Y22	Z22	X23	Y23	Z23	X24	Y24	Z24	X25	Y25	Z25	X26	Y26	Z26	X27	Y27	Z27	X28	Y28	Z28	X29	Y29	Z29	X30	Y30	Z30	X31	Y31	Z31	X32	Y32	Z32	X33	Y33	Z33	

1	44.110000000000	768.339878470804	1001.697405578446	410.315598761029	959.496075100933	1424.365458851588	226.706784134669	1061.266867366701	1350.662793476478	386.656047291371	984.785159838058	1426.403768852029	561.637716830238	947.032600871764	1487.458220127670	384.904914901126	996.299245816051	930.978229794222	526.590494935601	983.022456467684	951.158656211228	253.557943251900	1034.003750413127	728.770743277092	511.528428453560	952.363025467034	623.374489454534	580.393563267755	1031.757464978688	560.241787690367	508.761053544883	1020.023717570752	453.227520409818	533.611116347487	1045.006855671034	749.456799941411	298.355753722954	971.481896866728	622.257756362576	241.884255779588	1060.531577537600	555.011515095564	313.403461507203	1066.701390801452	480.124567848154	323.319097207155	1028.432832862007	406.404041516739	317.385112548895	928.853881051718	301.152206321857	266.638787867179	961.695997535090	187.105560485023	340.308142224584	939.850330357431	389.000635001880	541.872882055682	818.097536694087	355.510326021167	604.493699473776	798.646003386962	246.131250633873	556.814138203228	591.760786047821	189.654718999809	533.770656312574	759.793686824344	126.284946814507	571.310709643347	650.694037593371	127.294958175238	604.745316182002	823.730285548959	31.153817911890	590.790997043918	816.621368772837	40.513037402969	380.416930401760	891.078012923940	36.528961080782	301.151913931795	975.817737506079	96.028164849532	328.817514655735	1103.152147820435	39.847936842812	299.361559198308	1002.051028515744	1085.265835173261	83.227133125331	1154.651574562696	873.342661439054	80.793570109492	1020.928485524421	1074.419894555131	676.293613707853	1177.342078698791	866.542461752118	709.349792528487	
2	44.129785714286	766.905806345997	1001.116860606829	406.510615557609	961.891958737767	1424.028840034974	225.739562076767	1060.568049615547	1350.001247080434	387.355567782882	981.077001504754	1425.451418604542	561.162847183039	947.164017028736	1487.041657131099	383.931102635632	994.177285690667	931.601252208809	525.469287371122	983.347036563536	950.574629569410	252.051233620365	1038.030983898809	732.837929658277	508.695669954927	961.317621585456	625.161391618678	577.958996072976	1042.482421082877	564.545177227297	505.806760653173	1033.479137571052	456.134257664453	530.970395408738	1044.124983636836	748.056600782903	296.399336478692	969.564900195497	621.280760004663	240.477205746740	1057.970224445563	553.635737591710	312.225318030679	1063.565930643176	478.871200921635	322.571095897931	1024.806526275371	405.206456732282	316.715946744985	924.632098852994	300.486640297772	265.971368365914	956.389028313057	186.456859542072	340.080442223916	952.115280387932	391.853407337585	539.367496212147	829.260891061375	361.377484698123	601.742023286655	807.569267807730	252.259944282545	554.688679106642	600.389856942681	202.782261404983	530.942911258908	765.662360974968	132.970054697044	569.605796832228	656.493298428060	138.583264226966	602.611707871598	824.770125109396	31.291956069415	590.695309492948	810.533273660498	40.390888809482	380.307313402354	884.994654948109	36.432999268219	300.998459343782	969.718934525707	95.914343464993	328.770869485566	1097.086475122615	39.796392826313	299.300650188444	1011.496648557695	1087.138694396347	81.159337920895	1171.372963674736	881.076701099775	80.435561179755	999.347224109854	1072.781768477346	674.279918873421	1138.925811144516	856.046680519148	708.203337964358	
3	44.149571428571	765.471070644474	1000.726317794054	402.710745697695	964.355943395403	1423.879622840341	224.863786859932	1059.842879185163	1349.531545647314	388.172455654302	977.240440943082	1424.685646807138	560.735339713981	947.275403287041	1486.798725209664	383.024598332089	991.953550547409	932.412196170649	524.431809527056	983.721593232611	950.143385274867	250.651494664200	1041.943755280809	737.204615793869	505.949485596736	970.196978109302	627.287446923201	575.620206952296	1053.084581768968	569.206479542796	502.935338654396	1046.937813760095	459.465893832829	528.416568196596	1043.103915103382	746.682204867448	294.550394098004	967.382668245003	620.426472537748	239.116120777808	1055.036364923082	552.291980609729	311.108559064853	1059.994915563251	477.691712375986	321.884038831912	1020.790035579366	404.107773402725	316.074152537490	920.090831177149	299.867752268494	265.306428645545	950.838295014144	185.863604218576	339.856205576762	964.558567277356	394.941676235281	536.950556894491	840.634106444262	367.022082863990	599.052375972572	817.093493098599	258.013414105189	552.601045543219	609.547375106549	214.347490876682	528.187505397825	772.666224361408	139.237021387839	567.945445418616	663.325967053494	148.693996775342	600.559160884337	827.773817807136	31.614281399098	590.606369710545	804.264581152323	40.266381728409	380.194575593214	878.738907652545	36.335028323190	300.842746770719	963.446646123462	95.808740506298	328.714486821383	1090.849357451662	39.753047035737	299.240608520501	1021.090716036639	1089.297671817793	79.152137307732	1188.499656189899	889.469801908292	80.207733454002	977.336781053840	1071.594319161399	672.150009213794	1099.497454051362	846.198420177466	706.689217152902	
4	44.169357142857	764.080093359913	1000.630665117587	399.040970020646	966.855998732080	1424.001125380005	224.159213423430	1059.110593610109	1349.350417569725	389.145097471889	973.346758492673	1424.220715881022	560.392397543447	947.363545943425	1486.813237708829	382.249535835437	989.643792282615	933.468847474740	523.565348662704	984.157604896172	949.943467349740	249.468985067614	1045.526834213165	741.833059590601	503.447917375049	978.604050308348	629.804386782720	573.524854748265	1063.083100641232	574.194054308720	500.308604616679	1059.877137038349	463.298278829504	526.098851020245	1041.894118753076	745.389223755768	292.941994997826	964.865789162967	619.781357707848	237.871132025826	1051.624088089306	551.038990175382	310.124825834744	1055.870184727852	476.658659828148	321.308824793746	1016.308490030489	403.193190770540	315.491481664471	915.207234095489	299.337448753403	264.667464989372	945.091725612063	185.372032018141	339.644064983366	976.823997762500	398.259150976792	534.776362426850	851.986888334114	372.082830524902	596.597265990631	827.294919332087	262.987132289629	550.697869268486	619.415811735164	223.118910922029	525.711496058648	781.282691181510	144.646891833078	566.462919904447	671.685197098979	156.669965241373	598.765031395676	833.753974672590	32.220599602931	590.580425078334	797.923775730030	40.142544713226	380.082182193172	872.421444860696	36.237873395263	300.688946635063	957.111219593358	95.717979684973	328.646327109744	1084.551121357247	39.723861572167	299.184152364933	1030.620365245499	1091.814869954548	77.300706466277	1205.684320512416	898.599424222415	80.191831573396	955.423791952192	1071.127241120337	669.913296671791	1059.931219966821	837.664217893651	704.686129996821	
5	44.189142857143	762.768903317329	1000.913886097118	395.594168844353	969.383761918402	1424.453254493154	223.690924291418	1058.393664422817	1349.528360155926	390.309978125713	969.457554502028	1424.147349032865	560.162325683136	947.434282876476	1487.147748401415	381.656628284995	987.255964403107	934.816100805906	522.948889731939	984.666658500629	950.032923599368	248.599847675279	1048.588858143251	746.665002783712	501.334653185293	986.184479487342	632.729809294745	571.806389402460	1072.054247636981	579.446326919637	498.075225482970	1071.837012094312	467.678252523299	524.154951967900	1040.440088817872	744.218468879658	291.693901216665	961.949122211167	619.414952245851	236.797314591925	1047.629285645517	549.924456759663	309.334525217194	1051.075570079485	475.829762602313	320.883318226722	1011.285139903935	402.532307027231	314.989523451508	909.946505946959	298.929819021827	264.071526442199	939.172163046049	185.019788926125	339.449390974174	988.620943804291	401.782143127134	532.990371443489	863.183346881105	376.207777914846	594.560179728343	838.323014643277	266.817724755198	549.138268819015	630.324259716490	228.064162622746	523.735803001507	792.015213182036	148.803403286203	565.312453334140	682.121619412903	161.708464467479	597.420909305306	843.618853363281	33.143753498405	590.708018191931	791.585511385477	40.022276294646	379.973409262093	866.117858461466	36.144153966408	300.540527143339	950.787914861996	95.647203344873	328.564776857624	1078.266975967508	39.713691401333	299.133598160674	1039.947996743754	1094.752659965872	75.677746053901	1222.672724564828	908.551635331721	80.459318814716	934.030074740872	1071.599593202372	667.575092256363	1020.954452263758	830.981147748214	702.105831441256	
6	44.208928571429	761.562483271525	1001.624916245816	392.428987309453	971.950524733654	1425.259153288723	223.504138578420	1057.717268680444	1350.096020289916	391.695833260719	965.627079270780	1424.518800316977	560.062386183951	947.502859983996	1487.831118630400	381.279324153504	984.794212296390	936.473585045357	522.647224364385	985.256909466658	950.437852912885	248.117736103745	1050.974848515095	751.610017197139	499.729469648118	992.643054656833	636.030811568921	570.573831850295	1079.652819051879	584.858054969919	496.360139345120	1082.438599498976	472.603209103632	522.699308659599	1038.689656741588	743.191381384888	290.901976440790	958.587596484373	619.369824962825	235.930967071083	1042.973475385713	548.979994946506	308.781366067039	1045.523515824108	475.240582116641	320.628912458064	1005.663584775597	402.170061757510	314.578617591293	904.278274591109	298.666919738613	263.529020320357	933.086590118849	184.830867215852	339.274456981525	999.727792959328	405.462888402089	531.717269810912	874.179057130795	379.087817349306	593.121405298210	850.365884845136	269.226103710631	548.081545484271	642.712068324168	228.475390770766	522.478503180076	805.320777514962	151.403349514842	564.656823467999	695.175057090113	163.260195910827	596.714957435349	858.040414998767	34.357253605777	591.102918039946	785.293456523540	39.908237177534	379.871207202436	859.870992400279	36.056064936672	300.400157402618	944.519424053537	95.599331539146	328.469412682077	1072.039470740705	39.725623924400	299.090729600149	1049.010947002165	1098.147322510806	74.329625012446	1239.300586471127	919.392889722585	81.063818483654	913.467368257624	1073.150511378111	665.140792222011	983.153960220268	826.504618591299	698.911840256267	
